<mxfile host="app.diagrams.net" modified="2024-02-13T19:06:31.443Z" agent="Mozilla/5.0 (Windows NT 10.0; Win64; x64) AppleWebKit/537.36 (KHTML, like Gecko) Chrome/121.0.0.0 Safari/537.36" etag="cL17G5Aptdd02Lu0N9d9" version="23.1.4" type="device">
  <diagram name="Page-1" id="e7e014a7-5840-1c2e-5031-d8a46d1fe8dd">
    <mxGraphModel dx="1434" dy="738" grid="1" gridSize="10" guides="1" tooltips="1" connect="1" arrows="1" fold="1" page="1" pageScale="1" pageWidth="1169" pageHeight="826" background="none" math="0" shadow="0">
      <root>
        <mxCell id="0" />
        <mxCell id="1" parent="0" />
        <mxCell id="2" value="Kapitan " style="swimlane;whiteSpace=wrap" parent="1" vertex="1">
          <mxGeometry x="40" y="40" width="310" height="570" as="geometry" />
        </mxCell>
        <mxCell id="5" value="" style="ellipse;shape=startState;fillColor=#000000;strokeColor=#ff0000;" parent="2" vertex="1">
          <mxGeometry x="100" y="40" width="30" height="30" as="geometry" />
        </mxCell>
        <mxCell id="6" value="" style="edgeStyle=elbowEdgeStyle;elbow=horizontal;verticalAlign=bottom;endArrow=open;endSize=8;strokeColor=#FF0000;endFill=1;rounded=0" parent="2" source="5" edge="1">
          <mxGeometry x="100" y="40" as="geometry">
            <mxPoint x="115" y="110" as="targetPoint" />
          </mxGeometry>
        </mxCell>
        <mxCell id="JqCalTuAPM29PYD1mBbm-41" value="start" style="shape=note;whiteSpace=wrap;html=1;backgroundOutline=1;fontColor=#000000;darkOpacity=0.05;fillColor=#FFF9B2;strokeColor=none;fillStyle=solid;direction=west;gradientDirection=north;gradientColor=#FFF2A1;shadow=1;size=8;pointerEvents=1;" parent="2" vertex="1">
          <mxGeometry x="150" y="40" width="40" height="30" as="geometry" />
        </mxCell>
        <mxCell id="JqCalTuAPM29PYD1mBbm-44" value="Tworzenie nowego&amp;nbsp;&lt;br&gt;turnieju / ligi" style="rounded=1;whiteSpace=wrap;html=1;fillColor=#f8cecc;strokeColor=#b85450;" parent="2" vertex="1">
          <mxGeometry x="55" y="110" width="120" height="60" as="geometry" />
        </mxCell>
        <mxCell id="JqCalTuAPM29PYD1mBbm-45" value="" style="edgeStyle=none;strokeColor=#FF0000;endArrow=open;endFill=1;rounded=0;" parent="2" edge="1">
          <mxGeometry width="100" height="100" relative="1" as="geometry">
            <mxPoint x="175" y="139.5" as="sourcePoint" />
            <mxPoint x="410" y="140" as="targetPoint" />
          </mxGeometry>
        </mxCell>
        <mxCell id="3" value="Turniej" style="swimlane;whiteSpace=wrap" parent="1" vertex="1">
          <mxGeometry x="350" y="40" width="340" height="570" as="geometry" />
        </mxCell>
        <mxCell id="JqCalTuAPM29PYD1mBbm-49" value="Wysyłanie informacji o utworzeniu&lt;br&gt;&amp;nbsp;turnieju / ligi" style="rounded=1;whiteSpace=wrap;html=1;fillColor=#a0522d;fontColor=#ffffff;strokeColor=#6D1F00;" parent="3" vertex="1">
          <mxGeometry x="105" y="110" width="120" height="60" as="geometry" />
        </mxCell>
        <mxCell id="4" value="Gracz" style="swimlane;whiteSpace=wrap" parent="1" vertex="1">
          <mxGeometry x="690" y="40" width="340" height="570" as="geometry" />
        </mxCell>
        <mxCell id="JqCalTuAPM29PYD1mBbm-50" value="Odbieranie informacji&amp;nbsp;&lt;br&gt;o utworzonym turnieju/lidze" style="shape=step;perimeter=stepPerimeter;whiteSpace=wrap;html=1;fixedSize=1;size=10;fillColor=#a0522d;fontColor=#ffffff;strokeColor=#6D1F00;" parent="4" vertex="1">
          <mxGeometry x="65" y="110" width="180" height="65" as="geometry" />
        </mxCell>
        <mxCell id="39" value="" style="endArrow=open;strokeColor=#FF0000;endFill=1;rounded=0" parent="4" edge="1">
          <mxGeometry relative="1" as="geometry">
            <mxPoint x="154.5" y="175" as="sourcePoint" />
            <mxPoint x="155" y="250" as="targetPoint" />
            <Array as="points" />
          </mxGeometry>
        </mxCell>
        <mxCell id="JqCalTuAPM29PYD1mBbm-57" value="" style="strokeWidth=2;html=1;shape=mxgraph.flowchart.decision;whiteSpace=wrap;fillColor=#d5e8d4;strokeColor=#82b366;" parent="4" vertex="1">
          <mxGeometry x="135.93" y="250" width="38.13" height="40" as="geometry" />
        </mxCell>
        <mxCell id="JqCalTuAPM29PYD1mBbm-58" value="decyzja o wzięciu udziału w turnieju" style="text;html=1;align=center;verticalAlign=middle;whiteSpace=wrap;rounded=0;" parent="4" vertex="1">
          <mxGeometry x="190" y="240" width="110" height="60" as="geometry" />
        </mxCell>
        <mxCell id="JqCalTuAPM29PYD1mBbm-60" value="" style="endArrow=open;strokeColor=#FF0000;endFill=1;rounded=0" parent="4" edge="1">
          <mxGeometry relative="1" as="geometry">
            <mxPoint x="160" y="290" as="sourcePoint" />
            <mxPoint x="210" y="350" as="targetPoint" />
            <Array as="points" />
          </mxGeometry>
        </mxCell>
        <mxCell id="JqCalTuAPM29PYD1mBbm-77" value="" style="endArrow=open;strokeColor=#FF0000;endFill=1;rounded=0" parent="4" edge="1">
          <mxGeometry relative="1" as="geometry">
            <mxPoint x="150" y="290" as="sourcePoint" />
            <mxPoint x="80" y="370" as="targetPoint" />
            <Array as="points" />
          </mxGeometry>
        </mxCell>
        <mxCell id="JqCalTuAPM29PYD1mBbm-79" value="tak" style="text;html=1;align=center;verticalAlign=middle;whiteSpace=wrap;rounded=0;" parent="4" vertex="1">
          <mxGeometry x="90" y="310" width="30" height="10" as="geometry" />
        </mxCell>
        <mxCell id="JqCalTuAPM29PYD1mBbm-78" value="nie" style="text;html=1;align=center;verticalAlign=middle;whiteSpace=wrap;rounded=0;" parent="4" vertex="1">
          <mxGeometry x="190" y="310" width="30" height="10" as="geometry" />
        </mxCell>
        <mxCell id="JqCalTuAPM29PYD1mBbm-80" value="" style="ellipse;html=1;shape=endState;fillColor=#000000;strokeColor=#ff0000;" parent="4" vertex="1">
          <mxGeometry x="200" y="353" width="30" height="27" as="geometry" />
        </mxCell>
        <mxCell id="34" value="" style="whiteSpace=wrap;strokeColor=#FF0000;fillColor=#FF0000;rotation=90;" parent="1" vertex="1">
          <mxGeometry x="300" y="670" width="5" height="95" as="geometry" />
        </mxCell>
        <mxCell id="JqCalTuAPM29PYD1mBbm-55" value="" style="edgeStyle=none;strokeColor=#FF0000;endArrow=open;endFill=1;rounded=0;entryX=0;entryY=0.5;entryDx=0;entryDy=0;exitX=1;exitY=0.5;exitDx=0;exitDy=0;" parent="1" source="JqCalTuAPM29PYD1mBbm-49" target="JqCalTuAPM29PYD1mBbm-50" edge="1">
          <mxGeometry width="100" height="100" relative="1" as="geometry">
            <mxPoint x="510" y="179.5" as="sourcePoint" />
            <mxPoint x="685" y="180" as="targetPoint" />
          </mxGeometry>
        </mxCell>
      </root>
    </mxGraphModel>
  </diagram>
</mxfile>
